<!DOCTYPE svg PUBLIC "-//W3C//DTD SVG 20010904//EN" "http://www.w3.org/TR/2001/REC-SVG-20010904/DTD/svg10.dtd">
<svg version="1.0" xmlns="http://www.w3.org/2000/svg" width="512px" height="512px" viewBox="0 0 5120 5120" preserveAspectRatio="xMidYMid meet">
<g id="layer1" fill="#3d8cc4" stroke="none">
 <path d="M2495 5115 c-5 -2 -64 -9 -130 -14 -179 -16 -415 -82 -615 -172 -708 -318 -1228 -959 -1383 -1704 -44 -209 -63 -444 -49 -610 l7 -90 286 -5 286 -5 48 -30 c69 -43 91 -91 110 -240 38 -305 157 -560 362 -776 227 -237 499 -373 830 -414 147 -19 195 -41 238 -110 l30 -48 5 -286 5 -286 90 -7 c166 -14 401 5 610 49 745 155 1386 675 1704 1383 87 194 155 432 174 615 6 66 12 228 12 360 0 295 -14 440 -61 615 -82 311 -229 607 -433 870 -84 109 -302 327 -411 411 -327 253 -759 442 -1101 480 -94 10 -595 22 -614 14z m515 -980 c287 -63 529 -194 730 -395 204 -204 335 -448 397 -740 26 -121 26 -430 0 -550 -77 -355 -254 -645 -522 -855 -288 -225 -627 -328 -995 -304 -511 34 -972 347 -1191 809 -292 611 -122 1345 406 1754 212 165 395 242 715 300 59 11 387 -3 460 -19z"/>
 <path d="M2510 3894 c-444 -81 -826 -437 -936 -873 -132 -521 93 -1054 561 -1329 312 -183 732 -205 1066 -56 243 109 460 314 581 550 204 398 164 886 -102 1243 -183 246 -443 407 -749 465 -102 20 -315 19 -421 0z m290 -279 c46 -42 50 -124 7 -162 -49 -45 -80 -52 -131 -28 -67 32 -87 119 -40 174 42 50 118 58 164 16z m45 -508 c199 -62 314 -259 271 -464 -35 -168 -158 -286 -329 -316 -267 -45 -509 199 -459 464 45 244 283 389 517 316z m-869 -273 c41 -20 64 -59 64 -110 0 -54 -53 -104 -110 -104 -106 0 -158 121 -82 192 45 42 75 47 128 22z m1601 -4 c70 -42 79 -122 22 -180 -25 -25 -39 -30 -76 -30 -38 0 -50 5 -79 34 -28 28 -34 42 -34 75 0 50 23 89 65 107 42 18 65 17 102 -6z m-797 -796 c78 -46 78 -159 0 -199 -102 -53 -208 53 -155 155 29 55 101 75 155 44z"/>
 <path d="M31 2384 c-30 -25 -31 -29 -31 -107 0 -114 26 -346 50 -447 86 -361 265 -711 508 -994 338 -393 770 -662 1257 -782 113 -27 339 -54 462 -54 78 0 82 1 107 31 l26 31 0 394 c0 437 -1 443 -63 469 -18 7 -63 16 -102 20 -445 44 -844 292 -1088 677 -111 175 -191 410 -212 623 -4 39 -13 84 -20 102 -26 62 -32 63 -469 63 l-394 0 -31 -26z"/>
 </g>

</svg>