<!--?xml version="1.0" encoding="utf-8"?-->
<!-- Generator: Adobe Illustrator 18.1.1, SVG Export Plug-In . SVG Version: 6.00 Build 0)  -->

<svg version="1.1" id="_x32_" xmlns="http://www.w3.org/2000/svg" xmlns:xlink="http://www.w3.org/1999/xlink" x="0px" y="0px" viewBox="0 0 512 512" style="width: 32px; height: 32px; opacity: 1;" xml:space="preserve">
<style type="text/css">
	.st0{fill:#4B4B4B;}
</style>
<g>
	<path class="st0" d="M485.395,158.609c-7.296-8.514-12.122-13.426-20.826-22.348c-27.93-28.573-53.191-53.843-53.218-53.869
		l-12.591-12.6l-17.435,17.026l36.061,54.731l0.374,0.765c0.191,0.591,0.374,1.566,0.374,2.826c0.052,2.704-0.974,6.609-2.479,9.313
		l-3.165,5.826c-3.661,6.756-5.713,21.113-5.705,28.574c-0.008,7.182,1.696,14.4,5.114,20.982l6.235,12.026
		c7.295,14.07,21.347,23.148,36.991,24.348l3,0.939c0,39.574,0,88.904,0,126.835c-0.052,11.043-3.296,17.617-6.888,21.635
		c-3.652,3.991-7.965,5.634-11.913,5.644c-3.826-0.07-7.217-1.348-10.417-4.948c-3.13-3.617-6.365-10.295-6.4-22.33
		c0-35.618,0-44.522,0-66.783c-0.009-7.113-1.436-14.156-4.044-20.974c-3.93-10.191-10.601-20-20.348-27.582
		c-9.678-7.583-22.678-12.592-37.226-12.539c-1.704,0-3.425,0.096-5.164,0.226V47.956C355.726,21.469,334.256,0,307.769,0H97.378
		C70.891,0,49.422,21.469,49.422,47.956v406.166H18.256V512h368.634v-57.878h-31.165V282.174c1.843-0.27,3.6-0.452,5.164-0.452
		c4.496,0.017,8.01,0.93,11.096,2.4c4.592,2.192,8.374,5.896,11.026,10.348c2.67,4.382,3.922,9.461,3.879,12.73
		c0,22.261,0,31.165,0,66.783c-0.035,18.556,5.312,34.417,15.13,45.695c9.739,11.305,23.66,17.279,37.304,17.209
		c14.183,0.008,28.174-6.165,38.296-17.339c10.174-11.165,16.174-27.148,16.122-45.565c0-57.878,0-150.261,0-185.878
		C493.743,171.409,492.074,166.4,485.395,158.609z M284.491,227.061H120.656V71.235h163.834V227.061z M458.126,212.009
		c0,2.808-1.609,4.122-3.896,4.078c-4.304-0.07-11.009-1-13.913-5.722c-5.191-8.435-12.183-24.87-4.609-37.756
		c0.808-1.374,2.574-3.583,5.722-1.478l10.13,9.304c4.182,3.826,6.565,9.226,6.565,14.895
		C458.126,195.33,458.126,209.2,458.126,212.009z" style="fill: rgb(0, 0, 0);"></path>
</g>
</svg>
